<svg width="23" height="23" viewBox="0 0 23 23" fill="none" xmlns="http://www.w3.org/2000/svg">
<g clip-path="url(#clip0_4007_3)">
<path d="M1.5 0.5H21.5C22.0523 0.5 22.5 0.947715 22.5 1.5V21.5C22.5 22.0523 22.0523 22.5 21.5 22.5H1.5C0.947715 22.5 0.5 22.0523 0.5 21.5V1.5C0.5 0.947715 0.947715 0.5 1.5 0.5Z" fill="white" stroke="#00AAB9"/>
<path d="M20.05 2H2.95C2.42533 2 2 2.42533 2 2.95V20.05C2 20.5747 2.42533 21 2.95 21H20.05C20.5747 21 21 20.5747 21 20.05V2.95C21 2.42533 20.5747 2 20.05 2Z" fill="#00AAB9"/>
<path d="M6 4H11.8333C14.5948 4 16.8333 6.23857 16.8333 9C16.8333 11.7614 14.5948 14 11.8333 14H9.3333V19H6V4ZM9.3333 7.33333V10.6667H11.8333C12.7538 10.6667 13.5 9.9205 13.5 9C13.5 8.07952 12.7538 7.33333 11.8333 7.33333H9.3333Z" fill="white"/>
<path d="M17.0693 16.7002V16.3584C17.0693 16.0459 17.1165 15.7741 17.2109 15.543C17.3086 15.3086 17.4844 15.0579 17.7383 14.791C17.9792 14.5273 18.1322 14.3206 18.1973 14.1709C18.2656 14.0212 18.2998 13.8307 18.2998 13.5996C18.2998 13.388 18.251 13.2155 18.1533 13.082C18.0557 12.9486 17.901 12.8818 17.6895 12.8818C17.3379 12.8818 16.9684 13.0072 16.5811 13.2578L16.1221 12.2812C16.6331 11.9329 17.1995 11.7588 17.8213 11.7588C18.3584 11.7588 18.7816 11.9085 19.0908 12.208C19.4033 12.5042 19.5596 12.9176 19.5596 13.4482C19.5596 13.8193 19.5059 14.1351 19.3984 14.3955C19.291 14.6527 19.068 14.9635 18.7295 15.3281C18.5114 15.5658 18.3714 15.7497 18.3096 15.8799C18.251 16.0068 18.2217 16.181 18.2217 16.4023V16.7002H17.0693ZM16.8398 18.3311C16.8398 18.0739 16.9082 17.877 17.0449 17.7402C17.1849 17.6003 17.3867 17.5303 17.6504 17.5303C17.9173 17.5303 18.1191 17.6019 18.2559 17.7451C18.3926 17.8851 18.4609 18.0804 18.4609 18.3311C18.4609 18.5785 18.391 18.7738 18.251 18.917C18.111 19.0602 17.9108 19.1318 17.6504 19.1318C17.39 19.1318 17.1898 19.0618 17.0498 18.9219C16.9098 18.7819 16.8398 18.585 16.8398 18.3311Z" fill="white"/>
</g>
<defs>
<clipPath id="clip0_4007_3">
<rect width="23" height="23" fill="white"/>
</clipPath>
</defs>
</svg>
