<svg width="23" height="23" viewBox="0 0 23 23" fill="none" xmlns="http://www.w3.org/2000/svg">
<g clip-path="url(#clip0_3_222)">
<path d="M1.5 0.5H21.5C22.0523 0.5 22.5 0.947715 22.5 1.5V21.5C22.5 22.0523 22.0523 22.5 21.5 22.5H1.5C0.947715 22.5 0.5 22.0523 0.5 21.5V1.5C0.5 0.947715 0.947715 0.5 1.5 0.5Z" fill="white" stroke="#4FC4CF"/>
<path d="M20.05 2H2.95C2.42533 2 2 2.42533 2 2.95V20.05C2 20.5747 2.42533 21 2.95 21H20.05C20.5747 21 21 20.5747 21 20.05V2.95C21 2.42533 20.5747 2 20.05 2Z" fill="#4FC4CF"/>
<path d="M6 4H11.8333C14.5948 4 16.8333 6.23857 16.8333 9C16.8333 11.7614 14.5948 14 11.8333 14H9.3333V19H6V4ZM9.3333 7.33333V10.6667H11.8333C12.7538 10.6667 13.5 9.9205 13.5 9C13.5 8.07952 12.7538 7.33333 11.8333 7.33333H9.3333Z" fill="white"/>
<path d="M10.9741 19H10.3149V15.4307H11.9141V16.0044H10.9741V16.9956H11.8506V17.5693H10.9741V19ZM13.0249 17.6108V19H12.3608V15.4307H13.23C13.5978 15.4307 13.8688 15.5177 14.043 15.6919C14.2188 15.866 14.3066 16.1322 14.3066 16.4902C14.3066 16.9411 14.1545 17.256 13.8501 17.4351L14.5361 19H13.8257L13.2617 17.6108H13.0249ZM13.0249 17.0396H13.1958C13.3521 17.0396 13.4644 16.9956 13.5327 16.9077C13.6011 16.8182 13.6353 16.6855 13.6353 16.5098C13.6353 16.3275 13.5986 16.1981 13.5254 16.1216C13.4538 16.0435 13.3423 16.0044 13.1909 16.0044H13.0249V17.0396ZM16.4697 19H14.8608V15.4307H16.4697V16.0044H15.5249V16.854H16.4014V17.4302H15.5249V18.4189H16.4697V19ZM18.5986 19H16.9897V15.4307H18.5986V16.0044H17.6538V16.854H18.5303V17.4302H17.6538V18.4189H18.5986V19Z" fill="white"/>
</g>
<defs>
<clipPath id="clip0_3_222">
<rect width="23" height="23" fill="white"/>
</clipPath>
</defs>
</svg>
