<svg width="22" height="27" viewBox="0 0 22 27" fill="none" xmlns="http://www.w3.org/2000/svg">
<g clip-path="url(#clip0_3_227)">
<path d="M10.6465 25.0568L11 25.4103L11.3536 25.0568L18.2961 18.1143C22.3256 14.0847 22.3256 7.55163 18.2961 3.52212C14.2665 -0.507373 7.73345 -0.507377 3.70395 3.52213C-0.325553 7.55163 -0.325549 14.0847 3.70395 18.1143L4.0575 17.7607L3.70395 18.1143L10.6465 25.0568ZM12.6818 10.8182C12.6818 11.7471 11.9289 12.5 11 12.5C10.0711 12.5 9.31818 11.7471 9.31818 10.8182C9.31818 9.88934 10.0711 9.13636 11 9.13636C11.9289 9.13636 12.6818 9.88933 12.6818 10.8182Z" fill="#00AAB9" stroke="white"/>
<path d="M11 18C14.866 18 18 14.866 18 11C18 7.13401 14.866 4 11 4C7.13401 4 4 7.13401 4 11C4 14.866 7.13401 18 11 18Z" fill="white"/>
<path d="M8 6H11.7693C13.5535 6 15 7.49239 15 9.33333C15 11.1743 13.5535 12.6667 11.7693 12.6667H10.1539V16H8V6ZM10.1539 8.22223V10.4444H11.7693C12.364 10.4444 12.8461 9.947 12.8461 9.33333C12.8461 8.71968 12.364 8.22223 11.7693 8.22223H10.1539Z" fill="#00AAB9"/>
</g>
<defs>
<clipPath id="clip0_3_227">
<rect width="22" height="27" fill="white"/>
</clipPath>
</defs>
</svg>
