<svg width="22" height="27" viewBox="0 0 22 27" fill="none" xmlns="http://www.w3.org/2000/svg">
<g clip-path="url(#clip0_3_227)">
<path d="M3.70428 3.52246C7.73379 -0.507043 14.2665 -0.507036 18.2961 3.52246C22.3255 7.55198 22.3256 14.0848 18.2961 18.1143L11.0002 25.4102L3.70428 18.1143C-0.325212 14.0847 -0.325219 7.55196 3.70428 3.52246ZM11.0002 9.13672C10.0713 9.13672 9.31854 9.88952 9.31854 10.8184C9.31864 11.7472 10.0714 12.5 11.0002 12.5C11.9289 12.4999 12.6817 11.7471 12.6818 10.8184C12.6818 9.88957 11.9289 9.13682 11.0002 9.13672Z" fill="#00AAB9" stroke="white"/>
<path d="M11 18C14.866 18 18 14.866 18 11C18 7.13401 14.866 4 11 4C7.13401 4 4 7.13401 4 11C4 14.866 7.13401 18 11 18Z" fill="white"/>
</g>
<defs>
<clipPath id="clip0_3_227">
<rect width="22" height="27" fill="white"/>
</clipPath>
</defs>
</svg>
