<svg width="48" height="48" viewBox="0 0 48 48" fill="none" xmlns="http://www.w3.org/2000/svg">
<path d="M44.0028 1.04255H4.03977C2.38444 1.04255 1.04254 2.38446 1.04254 4.03978V44.0028C1.04254 45.6581 2.38444 47 4.03977 47H44.0028C45.6581 47 47 45.6581 47 44.0028V4.03978C47 2.38446 45.6581 1.04255 44.0028 1.04255Z" fill="#1098f7" stroke="white" stroke-width="2"/>
<mask id="path-2-outside-1_2008_19" maskUnits="userSpaceOnUse" x="5" y="5" width="26" height="29" fill="black">
<rect fill="white" x="5" y="5" width="26" height="29"/>
<path d="M8.815 31V8.263H16.504C20.244 8.263 23.06 8.879 24.952 10.111C26.866 11.321 27.823 13.114 27.823 15.49C27.823 17.14 27.405 18.548 26.569 19.714C25.755 20.858 24.6 21.738 23.104 22.354C21.608 22.948 19.848 23.245 17.824 23.245H16.108V31H8.815ZM17.527 18.658C18.693 18.658 19.595 18.416 20.233 17.932C20.871 17.448 21.19 16.722 21.19 15.754C21.19 14.852 20.882 14.181 20.266 13.741C19.65 13.279 18.759 13.048 17.593 13.048H16.108V18.658H17.527Z"/>
</mask>
<path d="M8.815 31V8.263H16.504C20.244 8.263 23.06 8.879 24.952 10.111C26.866 11.321 27.823 13.114 27.823 15.49C27.823 17.14 27.405 18.548 26.569 19.714C25.755 20.858 24.6 21.738 23.104 22.354C21.608 22.948 19.848 23.245 17.824 23.245H16.108V31H8.815ZM17.527 18.658C18.693 18.658 19.595 18.416 20.233 17.932C20.871 17.448 21.19 16.722 21.19 15.754C21.19 14.852 20.882 14.181 20.266 13.741C19.65 13.279 18.759 13.048 17.593 13.048H16.108V18.658H17.527Z" fill="#1098f7"/>
<path d="M8.815 31H5.815V34H8.815V31ZM8.815 8.263V5.263H5.815V8.263H8.815ZM24.952 10.111L23.315 12.625L23.3319 12.636L23.3489 12.6468L24.952 10.111ZM26.569 19.714L24.1309 17.9659L24.1246 17.9747L26.569 19.714ZM23.104 22.354L24.2111 25.1422L24.2287 25.1353L24.2463 25.128L23.104 22.354ZM16.108 23.245V20.245H13.108V23.245H16.108ZM16.108 31V34H19.108V31H16.108ZM20.233 17.932L18.4198 15.5419L18.4198 15.5419L20.233 17.932ZM20.266 13.741L18.466 16.141L18.4939 16.1619L18.5223 16.1822L20.266 13.741ZM16.108 13.048V10.048H13.108V13.048H16.108ZM16.108 18.658H13.108V21.658H16.108V18.658ZM8.815 31H11.815V8.263H8.815H5.815V31H8.815ZM8.815 8.263V11.263H16.504V8.263V5.263H8.815V8.263ZM16.504 8.263V11.263C20.0058 11.263 22.1343 11.8562 23.315 12.625L24.952 10.111L26.589 7.59701C23.9857 5.9018 20.4822 5.263 16.504 5.263V8.263ZM24.952 10.111L23.3489 12.6468C24.3427 13.275 24.823 14.0817 24.823 15.49H27.823H30.823C30.823 12.1463 29.3893 9.36696 26.5551 7.57523L24.952 10.111ZM27.823 15.49H24.823C24.823 16.6104 24.5485 17.3835 24.1309 17.9659L26.569 19.714L29.0071 21.4621C30.2615 19.7125 30.823 17.6696 30.823 15.49H27.823ZM26.569 19.714L24.1246 17.9747C23.686 18.5912 23.0162 19.1458 21.9618 19.58L23.104 22.354L24.2463 25.128C26.1838 24.3302 27.824 23.1248 29.0134 21.4533L26.569 19.714ZM23.104 22.354L21.9969 19.5658C20.9311 19.9889 19.5628 20.245 17.824 20.245V23.245V26.245C20.1332 26.245 22.2849 25.9071 24.2111 25.1422L23.104 22.354ZM17.824 23.245V20.245H16.108V23.245V26.245H17.824V23.245ZM16.108 23.245H13.108V31H16.108H19.108V23.245H16.108ZM16.108 31V28H8.815V31V34H16.108V31ZM17.527 18.658V21.658C19.0603 21.658 20.6964 21.3461 22.0462 20.3221L20.233 17.932L18.4198 15.5419C18.4936 15.4859 18.3257 15.658 17.527 15.658V18.658ZM20.233 17.932L22.0462 20.3221C23.5908 19.1503 24.19 17.4412 24.19 15.754H21.19H18.19C18.19 15.912 18.164 15.9093 18.2042 15.8177C18.2243 15.7718 18.2554 15.7173 18.2987 15.6626C18.3419 15.608 18.3855 15.568 18.4198 15.5419L20.233 17.932ZM21.19 15.754H24.19C24.19 14.0941 23.5714 12.4153 22.0097 11.2998L20.266 13.741L18.5223 16.1822C18.477 16.1499 18.4203 16.1007 18.3637 16.0326C18.3068 15.9642 18.2631 15.8925 18.2325 15.8258C18.1709 15.6916 18.19 15.6413 18.19 15.754H21.19ZM20.266 13.741L22.066 11.341C20.7247 10.335 19.092 10.048 17.593 10.048V13.048V16.048C17.9861 16.048 18.2384 16.0878 18.3829 16.1252C18.5222 16.1614 18.5256 16.1857 18.466 16.141L20.266 13.741ZM17.593 13.048V10.048H16.108V13.048V16.048H17.593V13.048ZM16.108 13.048H13.108V18.658H16.108H19.108V13.048H16.108ZM16.108 18.658V21.658H17.527V18.658V15.658H16.108V18.658Z" fill="white" mask="url(#path-2-outside-1_2008_19)"/>
<mask id="path-4-outside-2_2008_19" maskUnits="userSpaceOnUse" x="16" y="23.3" width="28" height="20" fill="black">
<rect fill="white" x="16" y="23.3" width="28" height="20"/>
<path d="M23.58 40.3L20.46 26.54H24.96L26.26 35.12L27.6 28.88H32.26L33.62 35.12L34.92 26.54H39.42L36.3 40.3H31.64L29.94 32.76L28.24 40.3H23.58Z"/>
</mask>
<path d="M23.58 40.3L20.46 26.54H24.96L26.26 35.12L27.6 28.88H32.26L33.62 35.12L34.92 26.54H39.42L36.3 40.3H31.64L29.94 32.76L28.24 40.3H23.58Z" fill="#1098f7"/>
<path d="M23.58 40.3L20.6543 40.9634L21.1841 43.3H23.58V40.3ZM20.46 26.54V23.54H16.7036L17.5343 27.2034L20.46 26.54ZM24.96 26.54L27.9261 26.0906L27.5397 23.54H24.96V26.54ZM26.26 35.12L23.2939 35.5694L29.1931 35.7499L26.26 35.12ZM27.6 28.88V25.88H25.1758L24.6669 28.2501L27.6 28.88ZM32.26 28.88L35.1912 28.2411L34.6766 25.88H32.26V28.88ZM33.62 35.12L30.6888 35.7588L36.5861 35.5694L33.62 35.12ZM34.92 26.54V23.54H32.3403L31.9539 26.0906L34.92 26.54ZM39.42 26.54L42.3457 27.2034L43.1764 23.54H39.42V26.54ZM36.3 40.3V43.3H38.6959L39.2257 40.9634L36.3 40.3ZM31.64 40.3L28.7135 40.9598L29.2411 43.3H31.64V40.3ZM29.94 32.76L32.8665 32.1002H27.0135L29.94 32.76ZM28.24 40.3V43.3H30.6389L31.1665 40.9598L28.24 40.3ZM26.5057 39.6366L23.3857 25.8766L17.5343 27.2034L20.6543 40.9634L26.5057 39.6366ZM20.46 29.54H24.96V23.54H20.46V29.54ZM21.9939 26.9894L23.2939 35.5694L29.2261 34.6706L27.9261 26.0906L21.9939 26.9894ZM29.1931 35.7499L30.5331 29.5099L24.6669 28.2501L23.3269 34.4901L29.1931 35.7499ZM27.6 31.88H32.26V25.88H27.6V31.88ZM29.3288 29.5188L30.6888 35.7588L36.5512 34.4811L35.1912 28.2411L29.3288 29.5188ZM36.5861 35.5694L37.8861 26.9894L31.9539 26.0906L30.6539 34.6706L36.5861 35.5694ZM34.92 29.54H39.42V23.54H34.92V29.54ZM36.4943 25.8766L33.3743 39.6366L39.2257 40.9634L42.3457 27.2034L36.4943 25.8766ZM36.3 37.3H31.64V43.3H36.3V37.3ZM34.5665 39.6402L32.8665 32.1002L27.0135 33.4198L28.7135 40.9598L34.5665 39.6402ZM27.0135 32.1002L25.3135 39.6402L31.1665 40.9598L32.8665 33.4198L27.0135 32.1002ZM28.24 37.3H23.58V43.3H28.24V37.3Z" fill="white" mask="url(#path-4-outside-2_2008_19)"/>
</svg>
