<svg width="23" height="23" viewBox="0 0 23 23" fill="none" xmlns="http://www.w3.org/2000/svg">
<g clip-path="url(#clip0_3_222)">
<path d="M1.5 0.5H21.5C22.0523 0.5 22.5 0.947715 22.5 1.5V21.5C22.5 22.0523 22.0523 22.5 21.5 22.5H1.5C0.947715 22.5 0.5 22.0523 0.5 21.5V1.5C0.5 0.947715 0.947715 0.5 1.5 0.5Z" fill="white" stroke="#1098f7"/>
<path d="M20.05 2H2.95C2.42533 2 2 2.42533 2 2.95V20.05C2 20.5747 2.42533 21 2.95 21H20.05C20.5747 21 21 20.5747 21 20.05V2.95C21 2.42533 20.5747 2 20.05 2Z" fill="#1098f7"/>
<path d="M6 4H11.8333C14.5948 4 16.8333 6.23857 16.8333 9C16.8333 11.7614 14.5948 14 11.8333 14H9.3333V19H6V4ZM9.3333 7.33333V10.6667H11.8333C12.7538 10.6667 13.5 9.9205 13.5 9C13.5 8.07952 12.7538 7.33333 11.8333 7.33333H9.3333Z" fill="white"/>
<path d="M11.1689 19H10.3779V14.7168H12.2969V15.4053H11.1689V16.5947H12.2207V17.2832H11.1689V19ZM13.3299 17.333V19H12.533V14.7168H13.576C14.0174 14.7168 14.3426 14.8213 14.5516 15.0303C14.7625 15.2393 14.868 15.5586 14.868 15.9883C14.868 16.5293 14.6854 16.9072 14.3201 17.1221L15.1434 19H14.2908L13.6141 17.333H13.3299ZM13.3299 16.6475H13.535C13.7225 16.6475 13.8572 16.5947 13.9393 16.4893C14.0213 16.3818 14.0623 16.2227 14.0623 16.0117C14.0623 15.793 14.0184 15.6377 13.9305 15.5459C13.8445 15.4521 13.7107 15.4053 13.5291 15.4053H13.3299V16.6475ZM17.1637 19H15.233V14.7168H17.1637V15.4053H16.0299V16.4248H17.0816V17.1162H16.0299V18.3027H17.1637V19ZM19.4184 19H17.4877V14.7168H19.4184V15.4053H18.2846V16.4248H19.3363V17.1162H18.2846V18.3027H19.4184V19Z" fill="white"/>
</g>
<defs>
<clipPath id="clip0_3_222">
<rect width="23" height="23" fill="white"/>
</clipPath>
</defs>
</svg>
