<svg width="24" height="24" viewBox="0 0 24 24" fill="none" xmlns="http://www.w3.org/2000/svg">
<path d="M18.9425 16.7607L12 23.7032L5.0575 16.7607C1.22326 12.9264 1.22326 6.70992 5.0575 2.87568C8.89174 -0.95856 15.1082 -0.95856 18.9425 2.87568C22.7768 6.70992 22.7768 12.9264 18.9425 16.7607ZM12 12C13.205 12 14.1818 11.0232 14.1818 9.81818C14.1818 8.6132 13.205 7.63636 12 7.63636C10.795 7.63636 9.81818 8.6132 9.81818 9.81818C9.81818 11.0232 10.795 12 12 12Z" fill="#006EBA"/>
<circle cx="12" cy="10" r="7" fill="white"/>
<path d="M9.5 6.25H12.4167C13.7974 6.25 14.9167 7.36929 14.9167 8.75C14.9167 10.1307 13.7974 11.25 12.4167 11.25H11.1667V13.75H9.5V6.25ZM11.1667 7.91667V9.58333H12.4167C12.8769 9.58333 13.25 9.21025 13.25 8.75C13.25 8.28976 12.8769 7.91667 12.4167 7.91667H11.1667Z" fill="#006EBA"/>
</svg>
